<svg width="421" height="504" viewBox="0 0 421 504" fill="none" xmlns="http://www.w3.org/2000/svg">
<path fill-rule="evenodd" clip-rule="evenodd" d="M219.283 48.4836C216.721 49.9516 214.175 51.4475 211.646 52.9735C194.31 63.4785 184.881 78.4783 180.122 98.6593C176.827 112.627 178.258 127.715 185.567 140.379C203.26 171.222 235.955 179.951 268.37 188.606C284.039 192.789 299.642 196.955 313.453 203.592C364.968 228.343 401.277 274.333 385.525 333.723C376.975 365.963 360.002 390.903 330.633 407.923C309.588 420.113 282.375 430.723 257.64 425.733C245.92 423.042 246.902 412.65 247.855 402.569C248.432 396.467 248.998 390.479 246.728 386.383C246.148 385.423 244.691 384.653 243.628 384.483C234.423 383.073 232.611 394.313 232.422 400.923C231.796 422.753 249.351 432.863 269.502 432.683C301.354 432.403 336.898 417.053 359.393 394.733C385.874 368.453 397.367 338.283 397.607 301.483C410.376 360.183 355.304 421.423 305.434 443.553C260.385 463.553 224.076 460.933 178.961 444.443C182.678 447.614 186.399 449.574 189.628 451.276C191.899 452.473 193.928 453.542 195.541 454.813C199.654 455.755 203.756 457.057 207.872 458.363C213.064 460.01 218.279 461.665 223.565 462.613C305.591 477.393 400.603 421.153 417.714 338.063C424.705 304.543 417.863 269.613 398.739 241.203C377.81 209.599 343.706 189.219 307.596 179.573C297.444 176.861 286.203 174.759 275.217 172.705C270.257 171.778 265.349 170.86 260.617 169.9L239.971 163.346L229.151 157.444L225.443 155.287C221.248 151.843 218.866 149.509 215.137 145.69C214.736 145.225 214.343 144.752 213.959 144.272C193.17 118.668 195.736 89.8885 220.293 70.4695L219.283 48.4836ZM354.095 50.2723C318.868 27.0963 281.594 26.3735 243.146 40.4735L246.155 58.9565C275.591 46.4705 314.579 37.6053 343.507 56.8893C343.692 57.6918 343.864 58.4097 344.026 59.0823C344.965 62.9958 345.537 65.376 346.026 73.9443C346.068 76.3082 345.438 80.0644 344.717 84.3739C342.372 98.3755 339.049 118.217 354.559 115.111C358.608 114.301 361.349 96.9113 362.698 88.3493C362.949 86.7593 363.151 85.4738 363.305 84.6553C365.815 87.8873 370.564 92.1143 374.489 89.0393C375.781 85.3321 373.952 81.4066 372.093 77.4161C371.032 75.1375 369.96 72.8377 369.454 70.5454C368.136 64.57 369.688 58.1798 371.19 51.9987C372.687 45.839 374.133 39.887 372.636 34.7603C371.987 33.3183 370.538 32.0273 369.042 31.6863C358.965 29.3931 356.419 40.344 354.672 47.8584C354.473 48.7161 354.284 49.529 354.095 50.2723Z" fill="#FEB48F"/>
<path d="M223.186 1.09146C218.789 6.25046 224.634 37.4575 224.907 47.6045L225.918 69.5904C226.914 73.0054 225.86 85.6955 225.917 90.1125C226.162 109.362 223.107 128.702 225.438 147.316L229.146 149.473C228.496 135.153 228.747 105.912 230.207 92.0014C231.707 100.068 232.737 111.715 233.788 120.096C235.622 134.544 237.677 140.992 239.966 155.375L260.612 161.929C255.021 126.164 247.646 96.8464 241.642 60.7914L238.634 42.3084C236.815 32.9194 235.877 4.06743 227.939 0.165434C225.548 -0.147566 225.275 -0.106541 223.186 1.09146Z" fill="#AAD0AE"/>
<path d="M230.208 92.002C231.708 100.069 232.737 111.716 233.788 120.097C235.622 134.545 237.683 148.963 239.972 163.346L229.152 157.444C228.502 143.124 228.748 105.913 230.208 92.002Z" fill="#B0ADAD" fill-opacity="0.01"/>
<path d="M103.588 59.2852C111.607 60.6732 113.585 64.2382 117.727 70.8842C124.393 81.5822 129.004 92.8682 134.132 104.359C163.322 169.765 192.386 237.422 235.399 295.102C233.982 267.632 233.416 240.112 231.413 212.657C230.788 204.085 230.347 195.229 230.147 186.643C241.543 191.074 251.135 194.532 262.985 197.54C266.463 216.917 276.159 310.972 268.704 326.552C266.834 330.462 263.534 333.562 259.424 334.982C252.401 337.392 245.876 334.692 239.57 331.572C184.936 304.552 144.117 209.161 124.887 152.793C120.014 136.564 116.234 121.541 112.113 105.073C111.841 148.514 116.318 196.247 120.124 239.692C123.235 272.382 127.635 299.672 127.272 333.112C126.986 359.392 114.993 396.852 80.9251 378.112C67.1421 369.342 60.6851 353.212 57.2411 338.342C54.5301 326.632 53.4361 293.192 68.2881 290.832C70.2141 291.702 71.1151 292.342 71.7291 294.692C77.7231 317.692 78.2771 343.052 88.7231 364.692C90.2591 368.312 96.5871 375.472 100.807 371.532C112.783 360.362 111.721 330.782 111.265 316.502C110.648 297.202 107.979 278.872 105.813 260.412C103.066 237.052 100.607 213.659 98.4351 190.236C96.9361 171.215 95.8021 152.166 95.0361 133.102C94.4351 117.736 94.0501 102.293 92.5341 86.9781C91.8811 80.3891 90.8301 78.6932 87.3671 73.0402C91.8731 65.7882 95.2571 61.3682 103.588 59.2852ZM253.118 315.512C253.89 281.102 250.758 246.312 247.214 212.094C246.93 209.349 246.64 205.657 246.003 203.006C244.975 224.142 250.063 250.312 249.673 272.232C249.567 278.182 249.573 310.712 250.679 314.262L253.118 315.512Z" fill="#AAD0AE"/>
<path d="M246.003 203.006C246.64 205.657 246.93 209.349 247.214 212.094C250.758 246.312 253.89 281.102 253.118 315.512L250.679 314.262C249.573 310.712 249.567 278.182 249.673 272.232C250.063 250.312 244.975 224.142 246.003 203.006Z" fill="#E8EDE9" fill-opacity="0.0156863"/>
<path d="M0 397.162C15.291 398.242 25.368 396.612 40.381 395.342C71.64 392.692 103.733 391.932 131.499 408.662C150.327 420.002 159.405 434.852 178.962 444.442C185.293 449.842 191.634 451.732 195.542 454.812C188.202 454.032 164.725 443.422 156.669 439.652C116.062 420.652 94.078 416.592 50.081 416.052C59.449 418.492 71.289 420.522 80.944 422.552C98.075 426.092 115.087 430.172 131.956 434.792C150.014 439.812 165.081 447.782 182.496 451.802L181.469 452.272C176.208 451.892 164.976 450.182 160.008 451.262C125.521 458.692 91.863 465.462 57.378 451.932C31.757 441.982 11.124 422.292 0 397.162Z" fill="#AAD0AE"/>
<path d="M155.579 337.072C172.922 340.262 188 343.102 201.462 355.522C224.804 377.062 222.791 406.032 210.846 432.482C199.455 410.942 199.262 383.772 180.521 361.082L179.869 361.472C193.883 385.492 191.562 413.762 208.301 442.112C148.854 428.352 148.097 386.952 155.579 337.072Z" fill="#AAD0AE"/>
<path d="M190.26 465.412L190.656 465.982C191.003 474.512 188.349 482.892 183.156 489.662C175.327 499.702 164.752 501.762 152.97 503.282C152.163 502.482 151.804 501.402 151.832 500.262C152.482 473.712 168.133 467.002 190.26 465.412ZM167.622 487.472C172.04 483.582 186.246 471.532 188.338 467.302L188.173 466.512C182.871 470.412 170.398 480.992 167.396 486.592L167.622 487.472Z" fill="#AAD0AE"/>
<path d="M188.172 466.512L188.337 467.302C186.245 471.532 172.039 483.582 167.621 487.472L167.395 486.592C170.397 480.992 182.87 470.412 188.172 466.512Z" fill="#E8EDE9" fill-opacity="0.0313726"/>
<path d="M26.0276 356.182C28.4866 355.392 31.1836 355.992 33.0696 357.752C34.9566 359.522 35.7356 362.172 35.1046 364.682C34.4746 367.182 32.5336 369.152 30.0356 369.812C26.3116 370.802 22.4766 368.642 21.3896 364.952C20.3036 361.252 22.3596 357.362 26.0276 356.182Z" fill="#FEB48F"/>
<path d="M17.9749 313.312C22.2109 313.403 23.4969 313.023 25.8339 316.763C26.2009 319.583 25.6059 320.392 24.3719 322.922L20.6759 323.123C16.0079 320.733 16.5529 318.082 17.9749 313.312Z" fill="#AAD0AE"/>
<path d="M8.78936 340.804C10.8374 340.064 13.1064 341.054 13.9584 343.054C14.8104 345.054 13.9494 347.374 11.9954 348.344C10.6314 349.014 9.00735 348.874 7.77535 347.984C6.54335 347.094 5.90634 345.594 6.11834 344.084C6.33134 342.584 7.35836 341.314 8.78936 340.804Z" fill="#FEC9AF"/>
<path d="M231.903 436.053C234.365 436.833 234.573 436.793 236.108 438.733C236.711 441.073 236.09 442.023 235.243 444.363C232.129 443.773 232.348 443.743 230.823 441.773C230.563 439.043 230.83 438.603 231.903 436.053Z" fill="#FEC9AF"/>
</svg>
